ply
format ascii 1.0
comment author Paulo Abelha (p.abelha at abdn ac uk)
element vertex 673
property float x
property float y
property float z
property int segm
property uchar red
property uchar green
property uchar blue
element face 1342
property list uchar int vertex_indices
end_header
0.010979 -0.00077102 -0.00075888 0 255 0 0
-0.0086115 -0.0021847 0.00022333 1 0 255 0
-0.019075 0.00020795 0.0020724 2 255 255 0
-0.02223 0.0010543 -0.00098259 2 255 255 0
-0.021373 0.0020123 -0.0020235 2 255 255 0
0.012374 0.00030312 0.00069549 0 255 0 0
-0.0056034 -0.0021995 -0.0017653 1 0 255 0
-0.021465 0.0011945 0.0020174 2 255 255 0
-0.010744 -0.0018375 0.00019852 1 0 255 0
-0.0047585 0.00019156 0.00013172 1 0 255 0
0.011384 -0.00051311 -0.00076888 0 255 0 0
-0.0010534 0.00021082 0.00014655 1 0 255 0
0.01037 0.0022285 -0.0007701 0 255 0 0
-0.0086165 -0.0019947 0.0012157 1 0 255 0
0.014388 -0.0020188 0.0003133 0 255 0 0
-0.018774 0.0012085 0.0020282 2 255 255 0
0.0012427 -0.0027288 0.0012909 1 0 255 0
-0.0215 1.3728e-05 -0.0019333 2 255 255 0
-0.022327 0.0010992 1.6009e-05 2 255 255 0
-0.00062558 -0.00071071 0.0018488 1 0 255 0
-0.020627 0.0025583 -0.0020452 2 255 255 0
0.012369 0.0013041 0.00069387 0 255 0 0
-0.0046031 -0.002274 -0.0017577 1 0 255 0
-0.020863 0.0021966 0.0019744 2 255 255 0
-0.00062679 5.5811e-05 0.0011564 1 0 255 0
0.010385 -0.00077351 -0.00074812 0 255 0 0
-0.0016253 -0.00071851 0.0017875 1 0 255 0
-0.0056238 0.0002626 0.00012482 1 0 255 0
-0.00062422 0.00034214 0.0001424 1 0 255 0
0.010365 0.003231 -0.00073811 0 255 0 0
-0.0076108 -0.002336 0.00023445 1 0 255 0
-0.019633 0.00021842 0.0023643 2 255 255 0
0.015387 -0.0018943 0.00031188 0 255 0 0
-0.020611 -0.00068423 -0.0018978 2 255 255 0
0.00039293 -0.0030755 0.00030197 1 0 255 0
-0.021331 0.00019622 0.0020633 2 255 255 0
-0.022043 0.0020543 -0.0010272 2 255 255 0
-0.022071 5.6162e-05 -0.00093657 2 255 255 0
-0.020623 0.0019999 -0.0023813 2 255 255 0
0.0013961 -0.0028999 -0.00070279 1 0 255 0
-0.0056041 -0.0019105 -0.0019734 1 0 255 0
0.013374 0.00030789 0.00069008 0 255 0 0
-0.021636 0.0011863 0.0018556 2 255 255 0
-0.010612 -0.0018524 -0.00014424 1 0 255 0
0.01038 0.00022847 -0.00072687 0 255 0 0
-0.021617 -0.001033 0.00011588 2 255 255 0
-0.0056202 0.00015264 -0.00062949 1 0 255 0
-0.00062613 0.00024052 0.00075278 1 0 255 0
0.01137 0.0022352 -0.00073508 0 255 0 0
-0.0076154 -0.0022086 0.0012297 1 0 255 0
-0.019638 0.0012238 0.0024606 2 255 255 0
-0.020613 -2.8655e-07 -0.0023395 2 255 255 0
0.014383 -0.0016728 0.0010505 0 255 0 0
0.00038725 -0.0027416 0.0012878 1 0 255 0
-0.020629 -0.00040908 0.0020938 2 255 255 0
-0.022131 0.0020992 -2.8587e-05 2 255 255 0
-0.021615 -0.0008108 -0.00089525 2 255 255 0
0.00039634 -0.0028312 -0.00086791 1 0 255 0
-0.0046041 -0.0019061 -0.0019886 1 0 255 0
-0.019626 0.0023107 -0.0020297 2 255 255 0
0.013369 0.0013075 0.00066015 0 255 0 0
-0.021639 0.0021614 0.0012859 2 255 255 0
0.01138 0.00023365 -0.00072337 0 255 0 0
-0.0098502 -0.0018783 -0.00079688 1 0 255 0
-0.021621 -0.00086252 0.00082588 2 255 255 0
0.011364 0.0032388 -0.00067677 0 255 0 0
0.00028873 0.0002632 0.0011509 1 0 255 0
-0.021615 1.8735e-05 -0.0018103 2 255 255 0
0.015383 -0.001673 0.00093561 0 255 0 0
-0.019612 -0.00043722 -0.0019048 2 255 255 0
0.0013931 -0.0031071 0.00030765 1 0 255 0
-0.020633 0.00021552 0.0024109 2 255 255 0
-0.00061887 7.5487e-05 -0.0008465 1 0 255 0
-0.019428 0.0022041 0.0019802 2 255 255 0
-0.0096174 -0.0018254 0.0012038 1 0 255 0
-0.019624 0.0020128 -0.0022067 2 255 255 0
-0.003603 -0.0022923 -0.0017526 1 0 255 0
-0.021616 0.00029171 -0.0019464 2 255 255 0
-0.00024074 0.00016964 -0.00084918 1 0 255 0
0.014374 0.00031381 0.00070995 0 255 0 0
0.012382 -5.46e-05 -0.00078548 0 255 0 0
-0.021821 0.0021462 0.00097163 2 255 255 0
-0.021615 -0.00093094 -0.00068019 2 255 255 0
-0.0096088 -0.0019283 -0.00079358 1 0 255 0
-0.0026251 -0.0007255 0.001744 1 0 255 0
0.00037436 0.00062753 0.00013367 1 0 255 0
-0.019614 1.1946e-05 -0.0021806 2 255 255 0
0.01237 0.0022398 -0.00074308 0 255 0 0
-0.022227 0.00010076 6.179e-05 2 255 255 0
0.016387 -0.0018172 0.00031261 0 255 0 0
-0.019629 -0.0002569 0.0020911 2 255 255 0
-0.019642 0.002207 0.0020679 2 255 255 0
-0.0096179 -0.0017827 0.0012795 1 0 255 0
-0.0036041 -0.0019004 -0.0019725 1 0 255 0
0.01238 0.0002376 -0.00074687 0 255 0 0
-0.021622 0.0014213 -0.0019977 2 255 255 0
-0.00061039 -0.00087346 -0.0017336 1 0 255 0
0.00037975 0.00035134 -0.0008548 1 0 255 0
0.014369 0.0013127 0.00066326 0 255 0 0
-0.021637 0.0028248 -5.9454e-05 2 255 255 0
-0.020638 0.001219 0.0024645 2 255 255 0
-0.0096122 -0.0020489 0.00021292 1 0 255 0
0.00037208 0.00028233 0.0011504 1 0 255 0
-0.019128 2.6054e-05 -0.0019238 2 255 255 0
0.0023931 -0.0031004 0.00031159 1 0 255 0
0.012364 0.0032437 -0.00067929 0 255 0 0
0.016384 -0.0016747 0.00078644 0 255 0 0
-0.022078 0.00014694 0.0010614 2 255 255 0
-0.0086192 -0.0017635 0.0015923 1 0 255 0
-0.021626 0.0020226 -0.001771 2 255 255 0
-0.0072039 -0.0019099 -0.0017853 1 0 255 0
0.0023959 -0.0028163 -0.00076211 1 0 255 0
0.00038184 0.00016003 -0.0011294 1 0 255 0
-0.019642 0.0023357 0.0019733 2 255 255 0
-0.021639 0.0024263 0.00095968 2 255 255 0
-0.021509 -0.00093989 -0.00088893 2 255 255 0
0.012363 0.002308 0.00075852 0 255 0 0
-0.021623 -0.00070395 0.0011019 2 255 255 0
-0.020642 0.0022022 0.0020732 2 255 255 0
0.0023876 -0.0027272 0.0011987 1 0 255 0
-0.018883 0.0010263 -0.0019682 2 255 255 0
0.012391 -0.0019068 -0.00070129 0 255 0 0
0.010357 0.0040524 2.04e-05 0 255 0 0
0.00037208 0.00026463 0.0011732 1 0 255 0
-0.0076205 -0.0017451 0.0018868 1 0 255 0
-0.008608 -0.0021027 -0.00078142 1 0 255 0
-0.0076055 -0.0017958 -0.0017921 1 0 255 0
-0.00062015 0.00017638 -0.00065902 1 0 255 0
-0.02163 0.00018235 0.0017912 2 255 255 0
0.0003944 -0.0018651 -0.001637 1 0 255 0
0.012383 -0.0016816 0.0010774 0 255 0 0
-0.020611 -0.0014147 -0.00086356 2 255 255 0
0.013364 0.00231 0.00069137 0 255 0 0
-0.019618 0.0010018 -0.0024272 2 255 255 0
-0.0016256 -0.00017714 0.0011628 1 0 255 0
0.011357 0.004008 2.6659e-05 0 255 0 0
-0.021632 0.0026625 -0.0010531 2 255 255 0
0.013391 -0.0019202 -0.00069645 0 255 0 0
-0.0096085 -0.0018828 -0.00092379 1 0 255 0
-0.020611 -0.00096904 -0.0016292 2 255 255 0
-0.0076096 -0.00091668 -0.0019122 1 0 255 0
-0.021348 0.0031023 -7.0836e-05 2 255 255 0
0.0013938 -0.0018532 -0.0014855 1 0 255 0
-0.011614 -0.00168 0.00018768 1 0 255 0
0.012378 -0.00068572 0.00096347 0 255 0 0
-0.021498 -0.00084903 0.0011091 2 255 255 0
0.0013727 0.00096193 0.00012271 1 0 255 0
-0.019354 0.0020228 -0.0020154 2 255 255 0
0.012358 0.0040026 3.1143e-05 0 255 0 0
0.012391 -0.0017702 -0.00087431 0 255 0 0
0.014364 0.0023144 0.00067831 0 255 0 0
0.0023863 -0.0025467 0.0012874 1 0 255 0
-0.020642 0.0023439 0.0019687 2 255 255 0
-0.0086067 -0.0018978 -0.0013629 1 0 255 0
-0.0066045 -0.0019111 -0.0018771 1 0 255 0
0.0013782 0.00067264 -0.00086516 1 0 255 0
-0.019612 -0.0013209 -0.00086358 2 255 255 0
-0.021215 0.0030576 -0.0010693 2 255 255 0
-0.02084 0.0031503 0.00093017 2 255 255 0
-0.011619 -0.0014107 0.0011765 1 0 255 0
0.013383 -0.0016758 0.0010932 0 255 0 0
-0.0086434 -0.00091842 -0.0018364 1 0 255 0
0.0023932 -0.0018421 -0.0013514 1 0 255 0
-0.020615 -0.0015308 0.00014274 2 255 255 0
0.0013711 0.00049387 0.001145 1 0 255 0
0.013391 -0.001769 -0.00095733 0 255 0 0
-0.019611 -0.00095677 -0.0014695 2 255 255 0
-0.0026251 -0.00027791 0.0011631 1 0 255 0
-0.020632 0.0030366 -0.0015945 2 255 255 0
-0.0066098 -0.00090947 -0.0018639 1 0 255 0
0.0013828 0.00015483 -0.0013542 1 0 255 0
-0.0086076 -0.0013709 -0.0018157 1 0 255 0
-0.0076071 -0.0022715 -0.00076951 1 0 255 0
0.013947 0.00024339 -0.00079238 0 255 0 0
0.015374 0.00032119 0.00076193 0 255 0 0
0.013378 -0.00067768 0.0010301 0 255 0 0
-0.010618 -0.0016763 0.0011928 1 0 255 0
-0.02064 0.003488 -8.5357e-05 2 255 255 0
-0.02062 -0.0012385 0.0011305 2 255 255 0
-0.0076053 -0.0019079 -0.0016969 1 0 255 0
0.0020027 0.0012257 0.0001134 1 0 255 0
0.014391 -0.0018783 -0.00069411 0 255 0 0
-0.010616 -0.0018113 0.00076029 1 0 255 0
-0.019633 0.0030539 -0.0013253 2 255 255 0
0.0027553 -0.0028117 -0.00070103 1 0 255 0
-0.0086099 -0.00091851 -0.0018421 1 0 255 0
0.00037944 -0.0017047 0.0018926 1 0 255 0
-0.0016229 8.5077e-05 0.00014985 1 0 255 0
-0.0056098 -0.00090399 -0.0018537 1 0 255 0
0.014379 0.00051006 -0.00080266 0 255 0 0
-0.019615 -0.0014191 0.00014191 2 255 255 0
0.015369 0.0013203 0.00071901 0 255 0 0
-0.020643 0.0032488 0.00092653 2 255 255 0
-0.0098785 -0.0017876 0.001201 1 0 255 0
0.014378 -0.00067047 0.0010784 0 255 0 0
0.014391 -0.0017631 -0.0009379 0 255 0 0
0.0023702 0.0006724 0.0011411 1 0 255 0
-0.020635 0.00332 -0.0010788 2 255 255 0
0.0013802 -0.0017073 0.0017251 1 0 255 0
0.0023829 0.0001586 -0.0013816 1 0 255 0
-0.0026224 -2.5799e-05 0.00015065 1 0 255 0
-0.00861 -0.00089723 -0.0018372 1 0 255 0
-0.011611 -0.0015072 -0.0008212 1 0 255 0
0.014381 0.00024299 -0.00084891 0 255 0 0
0.011359 0.0033005 0.00068015 0 255 0 0
0.0023696 0.0012466 0.00053217 1 0 255 0
0.016374 0.00032838 0.00080987 0 255 0 0
-0.01964 0.0034706 -8.0326e-05 2 255 255 0
-0.019621 -0.0010761 0.0011273 2 255 255 0
-0.010302 0.00020815 0.0011085 1 0 255 0
0.012389 -0.002223 0.0003141 0 255 0 0
-0.019635 0.0032032 -0.0010692 2 255 255 0
0.0023753 0.0011856 -0.0008095 1 0 255 0
0.002381 -0.0017117 0.0015184 1 0 255 0
0.0033926 -0.0018303 -0.0012033 1 0 255 0
-0.01061 -0.0017339 -0.00080666 1 0 255 0
-0.0016179 -0.00011991 -0.00084186 1 0 255 0
0.015377 -0.00066393 0.0011119 0 255 0 0
0.016368 0.0013286 0.00079246 0 255 0 0
0.012375 0.001239 -0.00073833 0 255 0 0
-0.019643 0.0032919 0.00092882 2 255 255 0
-0.020625 -0.00081471 0.0017678 2 255 255 0
0.0023706 0.0013753 0.00010816 1 0 255 0
-0.0096271 0.00010979 0.0011158 1 0 255 0
0.013388 -0.0021163 0.00031349 0 255 0 0
-0.018899 -0.00092633 -0.00087848 2 255 255 0
-0.0066043 -0.0020366 -0.001777 1 0 255 0
-0.00062099 -0.0017051 0.0019953 1 0 255 0
-0.011611 -0.0009167 -0.001471 1 0 255 0
-0.0026174 -0.00022025 -0.00084154 1 0 255 0
0.0043946 -0.0026025 -0.00070359 1 0 255 0
0.0033929 -0.0030577 0.00031388 1 0 255 0
-0.020643 0.0031586 0.00109 2 255 255 0
-0.019624 -0.00081942 0.0015537 2 255 255 0
0.016377 -0.00065724 0.0011487 0 255 0 0
0.015363 0.0023226 0.0007485 0 255 0 0
-0.018616 4.1383e-05 -0.001643 2 255 255 0
-0.0096266 0.0002015 0.00088778 1 0 255 0
-0.018615 -0.00073617 -0.00088592 2 255 255 0
0.0013714 0.00027717 0.0013387 1 0 255 0
0.013375 0.0012422 -0.00077763 0 255 0 0
-0.019643 0.0031664 0.0011523 2 255 255 0
-0.010611 -0.00091688 -0.0015854 1 0 255 0
0.0026679 0.0011837 -0.00088292 1 0 255 0
0.004392 -0.001819 -0.0010647 1 0 255 0
0.003388 -0.0027265 0.0011037 1 0 255 0
0.015391 -0.001778 -0.00069443 0 255 0 0
-0.0051672 -0.00090035 -0.0018225 1 0 255 0
0.014375 0.0012457 -0.00081217 0 255 0 0
-0.01862 0.001036 -0.0017849 2 255 255 0
0.016363 0.0023302 0.0008058 0 255 0 0
-0.011624 -0.00077786 0.0015852 1 0 255 0
0.0033953 -0.0028045 -0.00061311 1 0 255 0
0.0023713 0.00028331 0.0013635 1 0 255 0
-0.0046098 -0.00093635 -0.0018185 1 0 255 0
-0.017617 -0.00034847 -0.0008993 1 0 255 0
-0.0096105 -0.00091684 -0.0016948 1 0 255 0
0.010359 0.0032946 0.00066167 0 255 0 0
0.0033825 0.00016769 -0.0012919 1 0 255 0
0.0043928 -0.0030382 0.00031724 1 0 255 0
0.01337 0.0022434 -0.00077346 0 255 0 0
0.017386 -0.0017387 0.00031328 0 255 0 0
-0.010625 -0.00076649 0.0017252 1 0 255 0
-0.017617 6.1751e-05 -0.0013051 1 0 255 0
-0.0036096 -0.00096227 -0.0018131 1 0 255 0
-0.01803 0.0021205 -1.2172e-05 2 255 255 0
0.012359 0.0033042 0.0006531 0 255 0 0
0.0033763 0.0011801 -0.00104 1 0 255 0
0.0043951 -0.0027973 -0.00056359 1 0 255 0
-0.018623 -0.00087949 0.0001216 2 255 255 0
-0.011617 8.6694e-05 -0.0014186 1 0 255 0
0.0043885 -0.0027264 0.00099534 1 0 255 0
0.01639 -0.0017443 -0.00069173 0 255 0 0
0.0033696 0.00079097 0.00114 1 0 255 0
0.01437 0.0022472 -0.00080026 0 255 0 0
0.017385 -0.0016819 0.00051785 0 255 0 0
-0.0096253 -0.00075761 0.0018102 1 0 255 0
-0.017622 0.001062 -0.0013222 1 0 255 0
-0.018204 0.002165 0.00098611 2 255 255 0
0.013359 0.0033067 0.0005973 0 255 0 0
-0.019158 -0.00083687 0.0011184 2 255 255 0
0.0043819 0.00017986 -0.0011346 1 0 255 0
-0.00061287 -0.0027201 0.0012826 1 0 255 0
-0.010618 0.00010007 -0.0012346 1 0 255 0
0.0033845 -0.0021781 0.0012749 1 0 255 0
0.0033681 0.001268 0.00089288 1 0 255 0
0.017713 -0.0016896 0.00031244 0 255 0 0
-0.0026032 -0.0022424 -0.0017507 1 0 255 0
0.00038948 -0.00086706 -0.0017033 1 0 255 0
-0.017632 0.0019383 -2.2099e-06 1 0 255 0
0.015217 0.001249 -0.00083268 0 255 0 0
-0.011629 0.00021197 0.001339 1 0 255 0
0.0093588 0.0032879 0.00062513 0 255 0 0
-0.018628 0.0020672 -0.0011203 2 255 255 0
0.014359 0.0033104 0.00056841 0 255 0 0
0.0043765 0.0011828 -0.0010911 1 0 255 0
-0.0096183 0.00011183 -0.0010861 1 0 255 0
0.0040048 -0.0017155 0.0012565 1 0 255 0
-0.0026043 -0.0018933 -0.0019281 1 0 255 0
0.00437 0.00071441 0.0011477 1 0 255 0
-0.017635 0.0017609 0.0010069 1 0 255 0
0.012387 -0.00077762 -0.0010594 0 255 0 0
0.001389 -0.00085699 -0.001592 1 0 255 0
-0.010628 0.00021056 0.0011974 1 0 255 0
0.015381 0.00024199 -0.00098145 0 255 0 0
-0.018556 0.0020724 -0.0010133 2 255 255 0
-0.01762 -0.00054426 0.00011062 1 0 255 0
0.013357 0.004032 3.4043e-05 0 255 0 0
-0.018624 -0.00048721 0.0011048 2 255 255 0
-0.01863 0.00019677 0.0017774 2 255 255 0
0.0033748 0.0013432 -0.00088716 1 0 255 0
0.0043823 -0.0017149 0.0012272 1 0 255 0
0.0043674 0.0012801 0.0010505 1 0 255 0
-0.001604 -0.0020861 -0.0017535 1 0 255 0
-0.017626 0.0015038 -0.00098349 2 255 255 0
0.013388 -0.00078118 -0.0012481 0 255 0 0
0.017377 -0.00065097 0.0011764 0 255 0 0
0.011386 -0.00077137 -0.00081141 0 255 0 0
0.0023884 -0.00084472 -0.0014323 1 0 255 0
-0.0088906 0.00012468 -0.0008838 1 0 255 0
0.014358 0.0039047 4.4071e-05 0 255 0 0
0.011378 -0.00069264 0.00092164 0 255 0 0
-0.017626 -0.0001034 0.0010916 1 0 255 0
-0.0086265 5.4181e-06 0.0011248 1 0 255 0
0.0043739 0.0015328 -0.00089154 1 0 255 0
-0.0016047 -0.0018843 -0.0018403 1 0 255 0
-0.016617 -0.00036442 -0.00089434 1 0 255 0
0.0033818 -0.0017148 0.0013391 1 0 255 0
0.0033694 0.0016277 0.00010093 1 0 255 0
0.014388 -0.00078066 -0.0013472 0 255 0 0
-0.016617 6.7852e-05 -0.0012812 1 0 255 0
0.018385 -0.0015108 0.00030716 0 255 0 0
0.016382 0.00024188 -0.0010943 0 255 0 0
-0.008619 9.8973e-05 -0.00088148 1 0 255 0
-0.017629 0.00018219 0.001346 1 0 255 0
-0.0086246 0.00018445 0.00040192 1 0 255 0
0.013381 0.00015558 -0.00079079 0 255 0 0
0.015359 0.0033142 0.00054026 0 255 0 0
0.0033876 -0.00083176 -0.0012573 1 0 255 0
0.0043678 0.0019428 9.0847e-05 1 0 255 0
0.018377 -0.000646 0.0011754 0 255 0 0
-0.016623 0.0010689 -0.0012795 1 0 255 0
0.016375 0.0012533 -0.00086569 0 255 0 0
-4.4527e-06 -0.0027353 0.0012859 1 0 255 0
-0.017634 0.0011873 0.0014358 2 255 255 0
-0.0083279 0.00017301 0.00011743 1 0 255 0
-0.0076186 2.3729e-05 -0.00087382 1 0 255 0
0.00037455 -0.00070708 0.0018184 1 0 255 0
-0.015616 -0.00052103 -0.00088298 1 0 255 0
0.016343 0.0032982 8.0037e-05 0 255 0 0
0.0043868 -0.00081792 -0.0010633 1 0 255 0
-0.018639 0.002185 0.0014727 2 255 255 0
0.0033716 0.00028533 0.0012975 1 0 255 0
-0.015617 7.2409e-05 -0.0012913 1 0 255 0
0.017373 0.00033633 0.00087433 0 255 0 0
-0.01662 -0.00058977 0.00011693 1 0 255 0
0.015375 0.001372 -0.0008376 0 255 0 0
0.011363 0.0023036 0.00077201 0 255 0 0
-0.0076232 0.00012975 0.00012238 1 0 255 0
0.0093574 0.0040282 1.726e-05 0 255 0 0
0.015388 -0.0007794 -0.0014298 0 255 0 0
-0.0026097 -0.00095785 -0.001809 1 0 255 0
0.0013751 -0.00070776 0.001693 1 0 255 0
-0.0016212 -0.0017074 0.0020551 1 0 255 0
-0.015623 0.0010818 -0.0011077 1 0 255 0
-0.016626 -9.1307e-05 0.0010953 1 0 255 0
0.018373 0.00034496 0.00095401 0 255 0 0
0.016374 0.001483 -0.00083841 0 255 0 0
-0.007626 -9.7171e-05 0.0011337 1 0 255 0
-0.016218 0.0011764 0.0010394 1 0 255 0
0.015359 0.0036456 6.0086e-05 0 255 0 0
-0.015619 -0.00072528 0.00012733 1 0 255 0
-0.0016094 -0.0010139 -0.0018022 1 0 255 0
0.016389 -0.00077954 -0.0015433 0 255 0 0
0.0053812 0.00019238 -0.00096924 1 0 255 0
-0.016626 0.0014829 -0.0009783 1 0 255 0
0.0023759 -0.00071137 0.0015031 1 0 255 0
0.01537 0.0022509 -0.00082899 0 255 0 0
0.005394 -0.0024809 -0.00070488 1 0 255 0
-0.0086256 -0.0007496 0.001876 1 0 255 0
-0.015632 0.0011296 0.0010441 1 0 255 0
0.01637 0.0022571 -0.0008034 0 255 0 0
0.019384 -0.0012373 0.00029898 0 255 0 0
0.0053763 0.0011897 -0.0010515 1 0 255 0
-0.015625 0.0012733 -0.00096453 1 0 255 0
0.0053916 -0.0018096 -0.0009675 1 0 255 0
-0.015626 -0.00011609 0.0011007 1 0 255 0
-0.0076258 -0.00074269 0.0019178 1 0 255 0
-0.00060738 -0.0030141 0.00029494 1 0 255 0
0.019377 -0.00064363 0.0011172 0 255 0 0
0.0036635 -0.00071824 0.0012098 1 0 255 0
0.0061831 0.00020303 -0.00082346 1 0 255 0
0.010378 -0.00069855 0.00090204 0 255 0 0
0.0044884 0.00028503 0.0011677 1 0 255 0
0.0063932 -0.0023158 -0.00070814 0 255 0 0
0.013364 0.0032487 -0.00067985 0 255 0 0
-0.016632 0.0017928 8.6426e-06 1 0 255 0
-0.016628 0.00018446 0.0012854 1 0 255 0
0.0043776 -0.00071934 0.0011067 1 0 255 0
0.011369 0.0012993 0.00069876 0 255 0 0
0.01739 -0.0017352 -0.00065564 0 255 0 0
0.020383 -0.0010558 0.00029497 0 255 0 0
0.0053727 0.00028364 0.0010395 1 0 255 0
0.0063913 -0.0018013 -0.0008952 0 255 0 0
-0.013858 -0.00090013 -0.0008583 1 0 255 0
0.0043731 9.1891e-05 0.001176 1 0 255 0
0.014364 0.0032562 -0.00062591 0 255 0 0
-0.015631 0.0016227 2.0613e-05 1 0 255 0
-0.015628 0.00018831 0.0012598 1 0 255 0
-0.016633 0.0012839 0.0010328 1 0 255 0
0.020378 -0.00064144 0.001055 0 255 0 0
0.005372 0.0019038 -0.00090416 0 255 0 0
-0.0066063 -0.0024317 -0.00075799 1 0 255 0
0.0053673 0.0012864 0.0010784 1 0 255 0
-0.013614 -0.00095964 -0.00085457 1 0 255 0
0.0053923 -0.0029405 0.00031704 1 0 255 0
0.0033769 -0.00071683 0.0012724 1 0 255 0
-0.019442 0.0030668 -0.0010622 2 255 255 0
0.0053948 -0.0027895 -0.00050236 1 0 255 0
0.0096216 -0.00077808 -0.00076431 0 255 0 0
-0.016633 0.0011782 0.0011259 1 0 255 0
0.019373 0.00035429 0.0010488 0 255 0 0
0.0093648 0.0032237 -0.00078951 0 255 0 0
0.015364 0.0032651 -0.00054098 0 255 0 0
-0.013614 -0.00090279 -0.00094379 1 0 255 0
-0.0056056 -0.0025594 -0.00074794 1 0 255 0
0.0063805 0.00020501 -0.00080171 0 255 0 0
0.0063734 0.00028054 0.00086095 1 0 255 0
0.0063918 -0.0028353 0.0003165 0 255 0 0
0.017389 -0.00077728 -0.0016039 0 255 0 0
0.017368 0.0013377 0.00088175 0 255 0 0
0.0063945 -0.0027808 -0.00042244 0 255 0 0
0.020372 0.00036387 0.0011493 0 255 0 0
0.0053894 -0.0027312 0.0007797 1 0 255 0
-0.0066103 -0.0024386 0.00024335 1 0 255 0
-0.019059 0.0031142 -6.1675e-05 2 255 255 0
-0.014615 -0.00071831 -0.00086977 1 0 255 0
0.0063755 0.0012035 -0.0008573 0 255 0 0
-0.01479 -0.00085957 0.00013694 1 0 255 0
-0.018636 0.0026613 -3.9305e-05 2 255 255 0
0.0063677 0.0012873 0.000988 1 0 255 0
0.018389 -0.0014538 -0.00069645 0 255 0 0
0.018368 0.0013461 0.000956 0 255 0 0
0.0063903 -0.0027364 0.00055538 0 255 0 0
-0.006615 -0.0023 0.0012381 1 0 255 0
-0.014617 7.8141e-05 -0.0012756 1 0 255 0
0.0093856 -0.00078045 -0.0007905 0 255 0 0
-0.0026213 -0.001711 0.0020868 1 0 255 0
0.0048972 0.0022397 7.9602e-05 1 0 255 0
-0.019321 0.0031582 0.00093625 2 255 255 0
0.018389 -0.00076834 -0.0015176 0 255 0 0
0.0073933 -0.0023355 -0.00070301 0 255 0 0
-0.0056098 -0.0025397 0.00025219 1 0 255 0
0.0053702 0.0022008 -0.0008286 0 255 0 0
-0.01864 0.0025962 0.00096467 2 255 255 0
0.017363 0.0023365 0.00083291 0 255 0 0
0.0053826 -0.0017139 0.0011396 1 0 255 0
-0.014619 -0.00085055 0.00031647 1 0 255 0
-0.021619 0.0010086 -0.0020564 2 255 255 0
-0.013617 7.8475e-05 -0.0013786 1 0 255 0
0.0053639 0.0022675 0.00063913 1 0 255 0
0.0073913 -0.0017972 -0.00091624 0 255 0 0
0.017382 0.00024329 -0.0011737 0 255 0 0
-0.014615 -0.00088992 -0.00055027 1 0 255 0
0.0063705 0.002202 -0.00091347 0 255 0 0
0.018363 0.0023402 0.00080527 0 255 0 0
-0.0046052 -0.0026392 -0.00074007 1 0 255 0
0.006383 -0.0017124 0.0010606 1 0 255 0
-0.0056145 -0.0023998 0.0012469 1 0 255 0
0.021383 -0.0010144 0.00029732 0 255 0 0
-0.013617 -0.0011717 0.0001561 1 0 255 0
0.006363 0.0022831 0.00087172 0 255 0 0
0.0083922 -0.0021153 -0.00070878 0 255 0 0
0.016912 0.0012578 -0.00082589 0 255 0 0
0.018382 0.00024665 -0.0012101 0 255 0 0
-0.020617 0.00099014 -0.0025727 2 255 255 0
0.017376 0.0010791 -0.00081581 0 255 0 0
-0.0036047 -0.0027457 -0.00073099 1 0 255 0
0.021377 -0.00063281 0.0011344 0 255 0 0
-0.0066208 -0.0017364 0.0019687 1 0 255 0
-0.013622 -0.00081425 0.0010051 1 0 255 0
0.0083911 -0.0017892 -0.00084976 0 255 0 0
0.019368 0.0013518 0.00097158 0 255 0 0
0.0073918 -0.0028334 0.00032065 0 255 0 0
0.0073801 0.00021337 -0.00072818 0 255 0 0
-0.015288 0.0010904 -0.00095479 1 0 255 0
0.0073738 0.00028103 0.00076135 0 255 0 0
0.018377 0.00091477 -0.0008041 0 255 0 0
-0.014631 0.00095043 0.0010564 1 0 255 0
-0.0056212 -0.0017279 0.0020459 1 0 255 0
0.022382 -0.00077448 0.00029066 0 255 0 0
-0.014623 0.00085689 -0.00094137 1 0 255 0
-0.014625 -0.00025802 0.0011114 1 0 255 0
-0.0046092 -0.0026481 0.00026135 1 0 255 0
0.0073946 -0.0027773 -0.00045581 0 255 0 0
-0.012612 -0.0012468 -0.00083727 1 0 255 0
0.019387 -0.0011582 -0.00070564 0 255 0 0
0.0073903 -0.0027315 0.00055378 0 255 0 0
0.020368 0.0013547 0.00092519 0 255 0 0
0.0073751 0.0012131 -0.0007569 0 255 0 0
0.011374 0.00029778 0.00068822 0 255 0 0
0.0073683 0.0012858 0.00084421 0 255 0 0
-0.014631 0.0011638 0.00058691 1 0 255 0
0.022379 -0.00064159 0.00083082 0 255 0 0
-0.013623 0.00079746 -0.00093443 1 0 255 0
-0.013623 -0.00065217 0.0011335 1 0 255 0
-0.0046138 -0.0025231 0.0012567 1 0 255 0
-0.0036087 -0.0027506 0.00027025 1 0 255 0
-0.012612 -0.00091264 -0.001271 1 0 255 0
0.0083915 -0.0027838 0.00032263 0 255 0 0
0.019388 -0.0007547 -0.0013279 0 255 0 0
0.018375 0.0012688 -0.00074493 0 255 0 0
0.019364 0.0023354 0.00058728 0 255 0 0
0.0083801 0.00021837 -0.00072845 0 255 0 0
-0.014329 0.0011408 4.8022e-05 1 0 255 0
0.008374 0.00028384 0.00071264 0 255 0 0
-0.014626 0.0011161 -0.00046215 1 0 255 0
0.0083937 -0.0027626 -0.00024116 0 255 0 0
0.020914 0.00037041 0.0012335 0 255 0 0
-0.014628 0.00019414 0.0012777 1 0 255 0
-0.0036136 -0.002574 0.0012633 1 0 255 0
0.0083905 -0.0027289 0.00050037 0 255 0 0
0.017369 0.0022675 -0.00068539 0 255 0 0
-0.012617 7.8877e-05 -0.0014802 1 0 255 0
0.020387 -0.0010005 -0.00070857 0 255 0 0
0.021375 -0.00025366 0.0012638 0 255 0 0
0.0083751 0.0012177 -0.00076604 0 255 0 0
-0.013628 0.001054 5.4937e-05 1 0 255 0
-0.0066187 4.0635e-05 -0.00087035 1 0 255 0
0.020366 0.0023221 0.0001862 0 255 0 0
0.0083687 0.0012863 0.00074472 0 255 0 0
-0.013629 0.00020258 0.0013531 1 0 255 0
-0.0046214 -0.0017204 0.0020993 1 0 255 0
0.018369 0.0022796 -0.0005296 0 255 0 0
0.020387 -0.00074517 -0.0012284 0 255 0 0
0.0073831 -0.0017085 0.0010365 0 255 0 0
0.0053861 -0.00080595 -0.00091018 1 0 255 0
0.022374 -4.0787e-06 0.0012567 0 255 0 0
-0.01363 0.00074018 0.0010702 1 0 255 0
0.0073702 0.0022102 -0.00084166 0 255 0 0
-0.012615 -0.0014686 0.00017383 1 0 255 0
-0.0056187 4.2741e-05 -0.00086621 1 0 255 0
-0.014629 0.0012282 4.2785e-05 1 0 255 0
0.0073631 0.0022865 0.00083664 0 255 0 0
-0.0036214 -0.0017157 0.0020925 1 0 255 0
-0.013271 -0.00080626 0.001142 1 0 255 0
0.017363 0.0029832 9.8668e-05 0 255 0 0
0.019382 0.00025073 -0.0012306 0 255 0 0
0.019377 0.00097446 -0.00080257 0 255 0 0
0.008383 -0.001703 0.0010473 0 255 0 0
0.0063857 -0.00079652 -0.00081299 0 255 0 0
0.021371 0.00037599 0.0013057 0 255 0 0
0.00837 0.0022173 -0.00079706 0 255 0 0
-0.0066415 0.00018177 0.00012418 1 0 255 0
0.0083632 0.0022899 0.00080081 0 255 0 0
-0.012623 0.00080261 -0.00093042 1 0 255 0
-0.012621 -0.0010771 0.0011571 1 0 255 0
0.018364 0.0027687 0.00011266 0 255 0 0
0.0063838 -0.00043774 -0.0007935 0 255 0 0
-0.0066206 0.00015218 -0.00052931 1 0 255 0
0.020382 0.00025478 -0.001252 0 255 0 0
0.020376 0.0010365 -0.00080116 0 255 0 0
0.022372 0.00037978 0.0012788 0 255 0 0
-0.011621 0.00058884 -0.00091647 1 0 255 0
0.005378 -0.00071915 0.0010007 1 0 255 0
-0.012628 0.0010102 6.1168e-05 1 0 255 0
-0.0066259 -0.00011091 0.0011386 1 0 255 0
0.0053646 0.002583 6.5988e-05 0 255 0 0
0.019375 0.0012742 -0.00073684 0 255 0 0
-0.0066235 0.00018295 0.00014804 1 0 255 0
-0.012624 -0.00079217 0.0013807 1 0 255 0
0.0093785 -0.00070464 0.00087821 0 255 0 0
0.019365 0.0025299 0.00012776 0 255 0 0
0.022591 -0.00066526 0.00028658 0 255 0 0
0.020375 0.001279 -0.00074159 0 255 0 0
0.0073857 -0.00079181 -0.00081979 0 255 0 0
0.0063783 -0.00071756 0.00092522 0 255 0 0
-0.012629 0.00058405 0.0010816 1 0 255 0
0.0063619 0.0031297 4.538e-05 0 255 0 0
-0.011627 0.00085279 7.2562e-05 1 0 255 0
-0.0056259 -0.00011205 0.0011429 1 0 255 0
-0.00060515 -0.0018749 -0.0017425 1 0 255 0
-0.012629 0.00020848 0.0013725 1 0 255 0
0.020366 0.0023425 0.00014051 0 255 0 0
0.019368 0.0022897 -0.00041814 0 255 0 0
-0.0056245 0.00019819 0.0003732 1 0 255 0
0.022455 0.00037842 0.0012396 0 255 0 0
0.0083858 -0.00078804 -0.00084712 0 255 0 0
-0.011629 0.00046937 0.001091 1 0 255 0
-0.0046183 -3.1155e-05 -0.00085861 1 0 255 0
-0.0016129 -0.0027158 0.0012782 1 0 255 0
0.020369 0.0022912 -0.00049471 0 255 0 0
0.023377 0.0002242 0.00024951 0 255 0 0
0.0066361 0.0032477 4.1181e-05 0 255 0 0
0.0083841 -0.00049812 -0.00078228 0 255 0 0
-0.0066256 -0.00073963 0.0018748 1 0 255 0
0.021387 -0.00097492 -0.0007055 0 255 0 0
0.023375 0.00034469 0.00039597 0 255 0 0
0.0073785 -0.00071476 0.00087632 0 255 0 0
-0.0036177 -0.0001626 -0.0008484 1 0 255 0
-0.01062 0.00033717 -0.00090079 1 0 255 0
0.021371 0.00058326 0.0012257 0 255 0 0
0.0073654 0.0032075 -0.00092526 0 255 0 0
0.021387 -0.0007397 -0.0012184 0 255 0 0
-0.0056254 -0.00073665 0.00183 1 0 255 0
0.023438 0.00033813 0.00024459 0 255 0 0
0.0073598 0.0032669 0.00038304 0 255 0 0
0.0083786 -0.0007102 0.00086639 0 255 0 0
-0.0096196 0.00022483 -0.00089144 1 0 255 0
0.021368 0.0013547 0.00081412 0 255 0 0
0.011375 0.0012342 -0.00073368 0 255 0 0
0.022194 -0.00071273 -0.00071398 0 255 0 0
0.008365 0.0032159 -0.00085073 0 255 0 0
-0.010625 0.00058568 8.8941e-05 1 0 255 0
0.0083589 0.0032813 0.00058978 0 255 0 0
0.022371 0.00055552 0.0012312 0 255 0 0
0.010363 0.0022977 0.0007523 0 255 0 0
-0.0036227 5.1996e-05 0.00014287 1 0 255 0
0.0073596 0.0035787 2.9212e-05 0 255 0 0
-0.0046255 -0.00020114 0.0011512 1 0 255 0
0.021383 0.00025731 -0.0013067 0 255 0 0
-0.010628 0.00027999 0.0011039 1 0 255 0
0.022369 0.0013537 0.000682 0 255 0 0
0.0083579 0.003913 1.8256e-05 0 255 0 0
-0.0096244 0.00038368 0.00010236 1 0 255 0
0.022384 -0.00053591 -0.00072121 0 255 0 0
-0.0036252 -0.00025976 0.0011581 1 0 255 0
-0.0023182 -0.0028381 -0.00072134 1 0 255 0
-0.0026132 -0.0026476 0.0012708 1 0 255 0
0.011383 -0.0016858 0.0010944 0 255 0 0
0.020455 0.0023206 0.00014188 0 255 0 0
0.021367 0.0020294 0.00015898 0 255 0 0
0.022382 0.00027165 -0.0011014 0 255 0 0
-0.0016042 -0.0028521 -0.00071768 1 0 255 0
-0.0046252 -0.000734 0.0017778 1 0 255 0
0.01139 -0.001768 -0.00071388 0 255 0 0
0.022385 -0.00070595 -0.00058585 0 255 0 0
0.0087754 -0.002735 0.00032204 0 255 0 0
0.022369 0.0017374 0.00017649 0 255 0 0
-0.0086236 0.00022608 0.00011376 1 0 255 0
0.021375 0.0012838 -0.00074641 0 255 0 0
-0.0036251 -0.00073027 0.0017494 1 0 255 0
0.022375 0.0012888 -0.0007462 0 255 0 0
0.0093635 0.0022924 0.00074502 0 255 0 0
0.0093907 -0.0026125 0.00031909 0 255 0 0
-0.022149 0.0011455 0.0010157 2 255 255 0
0.0093905 -0.0017781 -0.00071678 0 255 0 0
0.023015 0.00029052 -0.00075608 0 255 0 0
0.023243 0.0013361 0.00019843 0 255 0 0
0.0093829 -0.0016963 0.0010848 0 255 0 0
-0.0032005 -0.0027973 0.0002741 1 0 255 0
-0.0066234 0.0001877 0.00012399 1 0 255 0
0.023375 0.00045445 0.00023904 0 255 0 0
0.0093741 0.00028768 0.00068675 0 255 0 0
0.0093802 0.00022313 -0.00073418 0 255 0 0
0.02338 0.00029751 -0.00064266 0 255 0 0
0.01039 -0.0024227 0.0003147 0 255 0 0
-0.002608 -0.0028818 0.00028045 1 0 255 0
-0.0026044 -0.0028382 -0.00069194 1 0 255 0
0.009369 0.0012884 0.00068099 0 255 0 0
0.0093751 0.0012224 -0.00077215 0 255 0 0
0.01039 -0.0017708 -0.0006652 0 255 0 0
-0.002611 -0.0027667 0.00088236 1 0 255 0
0.010383 -0.0016902 0.0011084 0 255 0 0
0.010374 0.00029251 0.0006828 0 255 0 0
-0.0016076 -0.0029708 0.00028874 1 0 255 0
0.010375 0.001228 -0.00076011 0 255 0 0
0.011379 -0.0017679 -0.0007119 0 255 0 0
0.010369 0.0012933 0.00067823 0 255 0 0
0.00937 0.0022226 -0.00079005 0 255 0 0
0.01139 -0.0017704 -0.00071173 0 255 0 0
-0.00060404 -0.0028811 -0.00071212 1 0 255 0
0.011389 -0.0023399 0.00031517 0 255 0 0
3 66 347 123
3 37 67 56
3 54 71 35
3 11 47 28
3 20 38 4
3 24 347 66
3 9 46 27
3 23 61 7
3 17 51 33
3 32 68 14
3 6 40 58
3 21 5 60
3 55 36 3
3 0 25 44
3 13 1 49
3 24 19 347
3 7 61 42
3 14 68 52
3 35 71 100
3 60 5 41
3 3 18 55
3 72 127 78
3 58 22 6
3 630 591 583
3 0 44 10
3 49 1 30
3 15 50 2
3 100 7 35
3 53 34 16
3 2 50 31
3 10 44 62
3 90 31 71
3 59 75 38
3 97 112 78
3 16 34 70
3 65 48 29
3 38 20 59
3 71 54 90
3 19 24 134
3 17 67 77
3 29 48 12
3 89 106 32
3 13 108 92
3 100 71 50
3 114 99 55
3 92 74 13
3 50 71 31
3 28 127 11
3 32 106 68
3 55 81 114
3 95 109 4
3 134 26 19
3 107 88 64
3 216 127 72
3 60 41 79
3 103 86 133
3 107 64 117
3 88 37 82
3 33 51 69
3 104 119 70
3 133 120 103
3 22 58 93
3 79 98 60
3 102 85 66
3 73 91 50
3 88 82 45
3 8 43 101
3 64 88 45
3 69 51 86
3 70 119 16
3 136 109 36
3 93 76 22
3 10 62 80
3 81 61 114
3 2 31 90
3 7 100 23
3 50 15 73
3 82 37 56
3 66 85 47
3 49 124 108
3 101 43 63
3 105 87 48
3 80 62 94
3 144 130 175
3 85 97 78
3 23 100 118
3 47 85 28
3 108 13 49
3 101 63 83
3 48 65 105
3 142 39 57
3 175 130 160
3 85 78 28
3 117 128 107
3 120 133 147
3 116 21 132
3 115 139 131
3 113 91 73
3 99 136 55
3 57 129 142
3 28 78 127
3 147 133 75
3 158 141 114
3 132 21 60
3 55 136 36
3 114 141 99
3 11 216 187
3 69 86 103
3 66 123 102
3 118 100 50
3 147 75 59
3 50 91 118
3 121 149 137
3 159 143 182
3 137 149 165
3 155 170 97
3 159 182 176
3 192 177 158
3 97 170 112
3 182 143 8
3 175 160 194
3 126 140 110
3 131 139 166
3 110 140 169
3 194 160 52
3 166 156 131
3 158 177 141
3 83 138 125
3 145 64 178
3 110 169 154
3 162 111 39
3 39 142 162
3 178 64 163
3 125 138 153
3 132 60 150
3 135 65 122
3 150 60 98
3 157 168 20
3 11 127 216
3 157 20 136
3 163 64 45
3 122 65 29
3 161 185 171
3 119 151 16
3 137 165 181
3 23 118 152
3 136 20 109
3 164 146 85
3 181 165 195
3 109 20 4
3 5 144 41
3 212 199 155
3 85 102 164
3 41 144 175
3 155 199 170
3 220 207 177
3 177 192 220
3 176 182 193
3 188 40 154
3 56 67 33
3 125 153 172
3 154 169 188
3 98 79 174
3 172 153 179
3 171 185 140
3 34 57 39
3 140 126 171
3 56 33 139
3 174 191 98
3 210 121 224
3 648 642 638
3 39 70 34
3 56 139 115
3 178 163 190
3 224 121 137
3 20 168 59
3 148 105 65
3 190 208 178
3 33 67 17
3 59 168 183
3 41 175 79
3 146 155 85
3 65 135 148
3 223 237 209
3 152 118 113
3 79 175 194
3 85 155 97
3 113 118 91
3 196 205 164
3 201 185 161
3 164 205 146
3 101 83 125
3 152 232 23
3 186 347 19
3 23 232 158
3 191 174 206
3 125 1 101
3 19 227 186
3 197 168 157
3 70 39 104
3 146 205 180
3 206 218 191
3 23 158 61
3 605 655 652
3 189 203 173
3 69 166 33
3 104 39 111
3 61 158 114
3 16 198 186
3 33 166 139
3 224 137 14
3 194 52 217
3 14 137 181
3 16 186 53
3 117 64 145
3 176 262 159
3 217 52 68
3 159 262 251
3 180 212 155
3 180 155 146
3 78 96 72
3 78 288 96
3 201 140 185
3 78 112 288
3 227 19 26
3 211 183 197
3 197 183 168
3 26 363 227
3 180 205 222
3 113 241 152
3 150 98 191
3 152 241 232
3 217 68 234
3 178 221 145
3 45 82 163
3 151 213 198
3 1 125 172
3 234 68 106
3 198 16 151
3 191 235 150
3 163 82 131
3 172 30 1
3 131 82 115
3 222 212 180
3 141 157 136
3 181 195 246
3 240 336 94
3 136 99 141
3 158 232 192
3 94 219 240
3 193 92 276
3 648 647 642
3 193 276 262
3 110 154 226
3 193 262 176
3 102 123 239
3 184 111 162
3 239 164 102
3 79 194 174
3 184 162 214
3 231 245 104
3 184 214 252
3 104 245 119
3 208 233 178
3 174 194 217
3 202 228 242
3 243 267 258
3 178 233 221
3 177 197 157
3 192 232 220
3 235 191 218
3 243 258 199
3 242 215 202
3 220 232 241
3 163 131 190
3 218 250 235
3 157 141 177
3 254 58 247
3 652 647 648
3 190 131 156
3 243 199 212
3 291 251 262
3 652 655 647
3 247 58 40
3 164 239 253
3 262 303 291
3 247 40 188
3 253 196 164
3 226 154 40
3 174 217 206
3 40 6 226
3 206 217 234
3 173 336 240
3 115 82 56
3 259 271 231
3 252 214 230
3 173 240 189
3 230 214 244
3 231 271 245
3 300 289 265
3 207 211 197
3 266 116 132
3 197 177 207
3 265 278 300
3 295 281 267
3 132 279 266
3 189 240 248
3 267 281 258
3 215 242 63
3 14 181 32
3 35 128 54
3 54 128 221
3 63 242 256
3 32 181 246
3 63 256 138
3 264 93 58
3 221 128 117
3 156 166 225
3 261 275 89
3 58 254 264
3 273 285 196
3 221 117 145
3 89 275 106
3 196 285 205
3 310 267 243
3 2 309 15
3 120 249 236
3 66 47 24
3 151 119 245
3 245 284 151
3 236 103 120
3 209 303 262
3 104 111 184
3 286 275 261
3 209 262 276
3 104 184 231
3 209 276 223
3 283 242 270
3 279 132 150
3 231 184 252
3 260 240 219
3 270 242 228
3 324 295 310
3 150 294 279
3 216 96 372
3 32 246 89
3 15 309 344
3 310 295 267
3 225 166 103
3 219 87 260
3 344 309 334
3 299 312 273
3 89 246 272
3 225 103 236
3 277 263 236
3 234 106 316
3 225 236 238
3 236 249 277
3 316 106 275
3 273 312 285
3 103 166 69
3 54 221 90
3 148 266 279
3 279 307 148
3 72 96 216
3 323 335 237
3 284 245 271
3 90 221 233
3 231 252 268
3 315 165 301
3 296 256 283
3 237 223 323
3 284 271 297
3 301 165 149
3 268 259 231
3 283 256 242
3 297 271 311
3 76 93 287
3 287 93 298
3 147 293 249
3 249 120 147
3 274 248 240
3 134 11 187
3 238 236 255
3 351 73 15
3 255 236 263
3 331 340 286
3 240 260 274
3 286 340 316
3 307 279 320
3 134 47 11
3 286 316 275
3 320 279 294
3 328 310 243
3 287 298 313
3 328 243 222
3 329 195 315
3 222 205 328
3 313 298 325
3 190 156 225
3 143 202 43
3 222 243 212
3 315 195 165
3 208 190 280
3 328 205 285
3 143 43 8
3 225 269 190
3 206 234 354
3 43 202 215
3 368 358 345
3 284 327 213
3 354 234 316
3 314 277 249
3 280 190 269
3 314 249 293
3 368 345 335
3 314 293 305
3 368 335 323
3 213 151 284
3 278 351 344
3 294 150 337
3 313 325 581
3 230 268 252
3 278 344 300
3 337 150 235
3 647 632 642
3 63 43 215
3 24 47 134
3 289 314 265
3 344 351 15
3 290 304 189
3 269 225 238
3 339 324 328
3 265 314 305
3 328 285 312
3 96 129 581
3 328 324 310
3 354 316 366
3 189 304 203
3 280 269 308
3 312 339 328
3 336 315 80
3 288 129 96
3 366 316 340
3 80 315 301
3 297 327 284
3 276 92 108
3 361 298 264
3 108 379 276
3 640 631 638
3 264 298 93
3 341 330 277
3 277 330 263
3 349 337 250
3 383 374 295
3 302 142 129
3 638 642 640
3 129 288 302
3 250 337 235
3 295 374 281
3 171 153 138
3 171 138 256
3 173 203 329
3 269 238 306
3 347 186 198
3 171 256 161
3 382 389 340
3 306 238 255
3 173 329 315
3 379 108 124
3 198 362 347
3 340 331 382
3 196 253 352
3 173 315 336
3 124 387 379
3 409 396 300
3 364 353 341
3 308 269 306
3 352 273 196
3 342 332 304
3 372 325 298
3 300 396 289
3 341 353 330
3 306 322 308
3 298 361 372
3 304 290 342
3 320 294 370
3 391 374 383
3 370 294 337
3 383 437 391
3 318 162 142
3 126 179 153
3 142 302 318
3 255 263 330
3 401 410 389
3 153 171 126
3 330 326 255
3 280 233 208
3 389 382 401
3 362 198 376
3 581 325 372
3 375 341 314
3 376 198 213
3 26 134 167
3 273 352 299
3 369 380 407
3 314 341 277
3 370 337 349
3 80 94 336
3 299 352 393
3 369 407 396
3 223 276 323
3 411 383 324
3 369 396 409
3 323 276 379
3 324 383 295
3 372 96 581
3 170 302 288
3 288 112 170
3 167 84 26
3 123 347 239
3 366 340 421
3 326 330 353
3 384 364 341
3 90 233 280
3 421 340 389
3 239 347 362
3 90 280 2
3 333 201 319
3 353 348 326
3 341 375 384
3 367 342 356
3 319 201 161
3 356 342 290
3 2 280 308
3 319 161 256
3 218 206 354
3 2 308 309
3 437 383 411
3 319 256 296
3 354 430 218
3 344 334 420
3 591 640 574
3 323 379 368
3 420 334 397
3 199 318 170
3 631 591 630
3 368 379 387
3 170 318 302
3 393 402 299
3 396 375 314
3 314 289 396
3 299 402 413
3 299 413 312
3 239 362 376
3 421 389 410
3 376 253 239
3 410 432 421
3 631 640 591
3 426 391 437
3 306 255 326
3 189 248 290
3 360 246 195
3 430 354 366
3 322 334 308
3 346 140 333
3 333 140 201
3 326 355 306
3 308 334 309
3 195 329 360
3 366 442 430
3 369 420 397
3 49 30 444
3 369 397 408
3 407 384 375
3 77 458 475
3 369 408 380
3 444 30 434
3 375 396 407
3 77 475 51
3 77 51 17
3 338 214 162
3 413 402 440
3 162 318 338
3 297 311 398
3 469 478 410
3 440 402 427
3 410 401 469
3 448 453 411
3 167 641 84
3 355 326 348
3 398 390 297
3 448 411 324
3 348 371 355
3 322 306 365
3 448 324 339
3 373 272 360
3 250 218 430
3 365 306 355
3 360 272 246
3 430 455 250
3 300 344 409
3 444 434 468
3 350 244 338
3 409 344 420
3 133 86 51
3 468 434 452
3 338 244 214
3 305 293 417
3 51 475 133
3 390 398 405
3 490 503 469
3 404 424 414
3 417 293 183
3 290 248 274
3 304 360 329
3 469 503 478
3 329 203 304
3 183 293 147
3 409 420 369
3 290 274 377
3 183 147 59
3 455 430 465
3 290 377 356
3 465 430 442
3 258 338 199
3 411 453 464
3 358 346 345
3 199 338 318
3 411 464 437
3 345 346 333
3 626 641 167
3 200 216 229
3 348 353 445
3 376 213 416
3 445 436 348
3 454 439 435
3 187 216 200
3 339 312 460
3 365 355 386
3 435 449 454
3 339 460 448
3 444 479 124
3 416 213 327
3 386 355 371
3 124 49 444
3 4 38 95
3 460 312 413
3 518 432 410
3 332 373 360
3 95 38 475
3 95 475 458
3 518 410 525
3 417 183 211
3 360 304 332
3 525 410 478
3 499 484 437
3 356 377 367
3 437 484 426
3 281 350 338
3 367 377 381
3 338 258 281
3 442 366 421
3 390 416 327
3 421 482 442
3 327 297 390
3 278 265 439
3 439 454 278
3 436 445 404
3 172 179 110
3 439 305 417
3 404 445 459
3 172 110 412
3 404 459 424
3 468 489 444
3 417 435 439
3 412 110 226
3 75 133 38
3 444 489 479
3 525 478 503
3 365 397 322
3 26 447 363
3 38 133 475
3 460 413 471
3 322 397 334
3 253 376 416
3 230 244 378
3 503 537 525
3 471 413 440
3 378 244 385
3 416 352 253
3 526 513 484
3 484 499 526
3 449 435 207
3 207 220 449
3 84 447 26
3 482 421 498
3 395 260 87
3 498 421 432
3 265 305 439
3 87 105 395
3 599 617 200
3 412 226 6
3 6 425 412
3 525 551 518
3 200 229 599
3 539 499 437
3 386 408 365
3 437 464 539
3 365 408 397
3 378 385 394
3 468 452 506
3 394 385 403
3 447 84 641
3 435 417 207
3 207 417 211
3 506 452 493
3 89 272 261
3 261 272 400
3 73 351 449
3 30 172 412
3 405 393 352
3 465 442 482
3 438 463 470
3 73 449 241
3 412 434 30
3 470 463 404
3 537 562 551
3 405 352 390
3 482 512 465
3 73 241 113
3 551 525 537
3 390 352 416
3 470 404 414
3 449 351 454
3 552 526 499
3 499 539 552
3 406 274 395
3 261 400 286
3 440 427 501
3 259 268 418
3 395 274 260
3 641 544 447
3 573 503 490
3 501 427 486
3 418 415 259
3 491 445 353
3 371 348 463
3 371 463 438
3 454 351 278
3 463 348 436
3 512 482 498
3 491 353 485
3 498 529 512
3 415 433 259
3 567 453 448
3 485 353 364
3 434 412 425
3 506 493 520
3 220 241 449
3 425 452 434
3 470 480 457
3 520 493 507
3 561 574 640
3 501 486 530
3 259 433 271
3 272 373 429
3 457 438 470
3 537 503 573
3 404 463 436
3 530 486 515
3 537 573 597
3 537 597 586
3 597 573 592
3 272 429 400
3 578 464 567
3 307 395 148
3 504 459 445
3 445 491 504
3 567 464 453
3 349 250 546
3 148 395 105
3 415 418 431
3 546 250 455
3 431 428 415
3 488 502 380
3 425 6 22
3 229 372 361
3 471 440 501
3 414 424 495
3 22 466 425
3 428 443 415
3 495 424 508
3 501 543 471
3 415 443 433
3 506 532 468
3 605 597 592
3 485 364 384
3 468 532 489
3 386 371 457
3 400 429 441
3 386 457 492
3 441 429 450
3 546 455 557
3 557 455 465
3 586 562 537
3 457 371 438
3 378 418 230
3 495 508 228
3 228 202 495
3 593 602 464
3 466 22 76
3 230 418 268
3 485 516 491
3 320 406 395
3 593 464 578
3 76 477 466
3 464 602 539
3 311 271 456
3 538 527 514
3 456 271 433
3 543 501 554
3 395 307 320
3 462 429 373
3 538 514 502
3 520 544 506
3 554 501 530
3 557 465 512
3 373 332 462
3 538 502 488
3 512 572 557
3 506 544 532
3 645 18 88
3 88 107 645
3 492 457 480
3 523 508 459
3 612 552 539
3 394 431 378
3 480 505 492
3 539 602 612
3 459 508 424
3 378 431 418
3 452 425 466
3 527 504 514
3 448 460 567
3 466 493 452
3 514 504 516
3 572 512 529
3 474 450 462
3 516 504 491
3 529 583 572
3 407 380 502
3 462 450 429
3 456 433 467
3 502 542 407
3 423 377 406
3 467 433 443
3 406 377 274
3 618 602 593
3 81 55 645
3 566 569 368
3 645 55 18
3 542 502 514
3 368 569 358
3 493 466 477
3 216 372 229
3 394 403 461
3 358 569 553
3 270 228 523
3 477 507 493
3 542 516 407
3 523 228 508
3 492 519 386
3 461 451 394
3 483 497 428
3 386 519 408
3 407 516 485
3 567 460 471
3 428 497 443
3 407 485 384
3 471 578 567
3 623 612 618
3 380 408 488
3 618 612 602
3 107 128 645
3 645 128 42
3 488 408 519
3 451 461 472
3 472 461 481
3 509 521 483
3 470 414 495
3 514 516 542
3 495 540 470
3 483 521 497
3 601 609 518
3 110 179 126
3 200 167 134
3 518 609 498
3 580 585 566
3 645 42 61
3 660 654 513
3 518 498 432
3 488 519 538
3 349 381 423
3 61 81 645
3 566 585 569
3 505 531 492
3 513 526 660
3 538 519 531
3 423 381 377
3 492 531 519
3 428 431 483
3 467 443 535
3 483 431 494
3 535 443 497
3 578 471 593
3 593 471 543
3 555 523 459
3 593 543 606
3 540 495 202
3 528 169 140
3 202 143 540
3 286 400 441
3 459 504 555
3 140 346 528
3 286 441 331
3 134 187 200
3 577 565 538
3 666 44 660
3 538 565 527
3 7 42 128
3 660 44 654
3 387 124 479
3 545 480 470
3 128 35 7
3 545 470 540
3 545 540 556
3 479 595 387
3 535 497 549
3 483 494 517
3 549 497 521
3 517 509 483
3 615 622 609
3 606 543 614
3 63 138 83
3 609 601 615
3 563 270 523
3 614 543 554
3 523 555 563
3 541 188 169
3 370 423 406
3 169 528 541
3 588 579 577
3 669 660 526
3 577 579 565
3 406 320 370
3 526 552 669
3 451 494 431
3 398 311 456
3 441 450 496
3 431 394 451
3 496 450 510
3 456 564 398
3 595 479 604
3 556 540 159
3 604 479 489
3 565 555 504
3 159 540 143
3 504 527 565
3 593 606 618
3 630 529 498
3 630 498 631
3 631 498 609
3 472 517 451
3 538 531 577
3 564 456 467
3 451 517 494
3 467 576 564
3 553 559 358
3 349 423 370
3 577 531 582
3 12 666 669
3 358 559 346
3 496 510 534
3 505 480 545
3 669 666 660
3 534 524 496
3 346 559 528
3 618 606 614
3 579 563 555
3 614 623 618
3 368 387 595
3 555 565 579
3 536 385 350
3 556 570 545
3 595 566 368
3 350 385 244
3 405 398 564
3 631 609 638
3 610 62 666
3 405 564 402
3 577 582 588
3 405 402 393
3 638 609 622
3 588 582 291
3 666 62 44
3 547 510 474
3 474 510 450
3 528 559 46
3 550 403 536
3 536 403 385
3 46 541 528
3 530 515 659
3 659 515 653
3 621 613 588
3 600 283 270
3 219 94 62
3 402 564 427
3 588 613 579
3 159 251 556
3 270 563 600
3 427 564 576
3 62 610 219
3 556 251 570
3 518 551 601
3 0 661 25
3 566 595 604
3 476 462 473
3 604 580 566
3 374 536 350
3 350 281 374
3 473 462 332
3 659 653 668
3 473 332 342
3 667 661 0
3 668 653 664
3 48 610 12
3 608 296 600
3 560 534 547
3 600 296 283
3 547 534 510
3 545 570 582
3 12 610 666
3 601 551 615
3 545 582 531
3 615 551 562
3 640 632 620
3 545 531 505
3 209 237 624
3 642 632 640
3 209 624 613
3 209 613 621
3 554 530 643
3 643 530 659
3 576 467 535
3 331 441 382
3 535 598 576
3 382 441 496
3 558 550 536
3 558 536 374
3 558 374 391
3 264 599 229
3 87 219 610
3 610 48 87
3 613 600 563
3 619 9 585
3 586 597 615
3 563 579 613
3 588 291 621
3 615 597 622
3 621 291 303
3 619 585 580
3 598 535 549
3 622 597 648
3 549 607 598
3 487 474 462
3 391 426 558
3 582 570 291
3 462 476 487
3 648 597 652
3 291 570 251
3 589 254 247
3 382 496 401
3 643 659 616
3 589 247 541
3 616 659 668
3 401 496 524
3 541 247 188
3 422 669 612
3 612 669 552
3 621 303 209
3 624 608 600
3 575 461 403
3 427 576 598
3 600 613 624
3 403 550 575
3 626 200 617
3 598 486 427
3 626 617 619
3 652 597 605
3 29 12 422
3 422 12 669
3 624 237 335
3 473 342 367
3 619 617 9
3 335 639 624
3 668 664 500
3 599 264 254
3 319 296 608
3 524 534 596
3 500 399 668
3 254 589 599
3 596 534 603
3 587 481 575
3 638 622 648
3 639 335 345
3 575 481 461
3 486 598 607
3 359 422 623
3 607 515 486
3 623 422 612
3 604 489 532
3 229 361 264
3 532 634 604
3 553 569 651
3 193 182 101
3 596 603 611
3 193 101 74
3 637 521 509
3 167 200 626
3 122 29 359
3 639 333 319
3 399 500 21
3 101 182 8
3 550 558 575
3 21 500 5
3 615 562 586
3 359 29 422
3 639 319 624
3 10 301 317
3 9 589 46
3 624 319 608
3 46 589 541
3 651 569 27
3 634 532 544
3 27 569 585
3 583 529 630
3 620 603 560
3 544 641 634
3 74 92 193
3 560 603 534
3 345 333 639
3 594 587 575
3 616 668 399
3 80 301 10
3 561 620 560
3 617 599 589
3 399 357 616
3 644 649 637
3 589 9 617
3 511 487 476
3 27 585 9
3 651 559 553
3 637 649 549
3 74 101 13
3 637 549 521
3 13 101 1
3 580 604 619
3 640 620 561
3 619 604 634
3 357 399 116
3 611 603 620
3 558 426 484
3 611 620 632
3 484 575 558
3 116 399 21
3 27 46 559
3 611 632 625
3 559 651 27
3 656 663 649
3 649 644 656
3 367 381 473
3 575 484 594
3 473 381 522
3 594 484 513
3 473 522 476
3 477 76 287
3 401 524 469
3 287 658 477
3 469 524 596
3 672 629 663
3 472 481 646
3 619 634 626
3 614 554 643
3 663 656 672
3 643 292 614
3 626 634 641
3 509 517 637
3 533 511 522
3 210 130 629
3 629 672 210
3 522 511 476
3 657 662 650
3 658 287 627
3 469 596 611
3 627 287 313
3 469 611 490
3 490 611 636
3 627 313 633
3 292 643 257
3 637 517 644
3 607 549 571
3 257 643 616
3 644 517 646
3 571 549 649
3 343 227 282
3 646 517 472
3 650 658 657
3 548 547 487
3 665 590 662
3 662 657 665
3 625 636 611
3 487 547 474
3 571 649 392
3 392 649 663
3 644 646 656
3 656 646 661
3 623 614 292
3 667 635 670
3 292 359 623
3 515 607 571
3 571 653 515
3 625 632 647
3 657 658 627
3 670 635 121
3 653 571 664
3 657 627 665
3 121 635 149
3 664 571 392
3 665 627 633
3 490 636 573
3 561 560 548
3 548 560 547
3 520 507 650
3 359 292 122
3 520 650 662
3 122 292 257
3 520 662 628
3 392 663 629
3 629 321 392
3 656 661 672
3 672 661 667
3 672 667 670
3 487 511 548
3 548 511 568
3 573 636 625
3 507 477 650
3 573 625 647
3 573 647 592
3 650 477 658
3 321 629 144
3 343 186 227
3 592 647 655
3 144 629 130
3 672 670 121
3 257 616 204
3 121 210 672
3 628 662 590
3 204 616 357
3 343 53 186
3 10 317 0
3 592 655 605
3 664 392 500
3 500 392 321
3 548 568 561
3 561 568 574
3 317 149 635
3 646 481 587
3 646 587 446
3 301 149 317
3 584 572 583
3 204 357 116
3 500 321 5
3 5 321 144
3 628 447 520
3 116 266 204
3 520 447 544
3 646 446 419
3 584 568 533
3 3 458 77
3 224 160 130
3 533 568 511
3 3 77 37
3 130 210 224
3 37 77 67
3 583 591 584
3 590 227 363
3 587 594 446
3 282 227 590
3 122 257 135
3 667 317 635
3 14 52 224
3 135 257 204
3 590 363 628
3 224 52 160
3 628 363 447
3 591 574 568
3 568 584 591
3 36 109 95
3 0 317 667
3 36 95 3
3 3 95 458
3 57 34 388
3 581 671 313
3 135 204 266
3 313 671 633
3 266 148 135
3 388 282 590
3 590 665 388
3 18 3 88
3 88 3 37
3 546 522 381
3 419 25 661
3 419 661 646
3 381 349 546
3 533 557 572
3 129 57 671
3 671 581 129
3 343 282 388
3 343 388 34
3 343 34 53
3 594 513 654
3 654 446 594
3 557 533 522
3 522 546 557
3 665 633 671
3 388 671 57
3 671 388 665
3 572 584 533
3 419 44 25
3 446 654 419
3 419 654 44
